<svg width="30" height="30" viewBox="0 0 30 30" fill="none" xmlns="http://www.w3.org/2000/svg">
<path fill-rule="evenodd" clip-rule="evenodd" d="M3.43212 4.56494H18.5724C18.7084 4.56494 18.8255 4.6134 18.9216 4.70961L21.6947 7.48262C21.7908 7.57877 21.8393 7.69584 21.8393 7.83184V28.5685C21.8393 28.8405 21.6175 29.0623 21.3455 29.0623H3.43212C3.16007 29.0623 2.93823 28.8405 2.93823 28.5685V5.05883C2.93823 4.78678 3.16013 4.56494 3.43212 4.56494Z" fill="#ECEFF1"/>
<path fill-rule="evenodd" clip-rule="evenodd" d="M3.43212 4.56494H4.33563V29.0624H3.43212C3.16007 29.0624 2.93823 28.8406 2.93823 28.5685V5.05889C2.93823 4.78684 3.16013 4.56494 3.43212 4.56494Z" fill="#D1D1D6"/>
<path fill-rule="evenodd" clip-rule="evenodd" d="M18.7769 4.60767C18.8293 4.63163 18.8776 4.66562 18.9215 4.7095L21.6946 7.48251C21.7385 7.5264 21.7725 7.57474 21.7964 7.62718H19.0238C18.8878 7.62718 18.7769 7.51626 18.7769 7.38026V4.60767Z" fill="#A79BA7"/>
<path fill-rule="evenodd" clip-rule="evenodd" d="M9.83643 25.2192C9.57756 25.2192 9.36768 25.0093 9.36768 24.7504C9.36768 24.4916 9.57756 24.2817 9.83643 24.2817H19.3015C19.5604 24.2817 19.7702 24.4916 19.7702 24.7504C19.7702 25.0093 19.5604 25.2192 19.3015 25.2192H9.83643ZM9.83643 18.0119C9.57756 18.0119 9.36768 17.802 9.36768 17.5432C9.36768 17.2843 9.57756 17.0744 9.83643 17.0744H19.3015C19.5604 17.0744 19.7702 17.2843 19.7702 17.5432C19.7702 17.802 19.5604 18.0119 19.3015 18.0119H9.83643ZM9.83643 16.1797C9.57756 16.1797 9.36768 15.9698 9.36768 15.7109C9.36768 15.4521 9.57756 15.2422 9.83643 15.2422H19.3015C19.5604 15.2422 19.7702 15.4521 19.7702 15.7109C19.7702 15.9698 19.5604 16.1797 19.3015 16.1797H9.83643ZM9.83643 22.5317C9.57756 22.5317 9.36768 22.3218 9.36768 22.0629C9.36768 21.804 9.57756 21.5942 9.83643 21.5942H19.3015C19.5604 21.5942 19.7702 21.804 19.7702 22.0629C19.7702 22.3218 19.5604 22.5317 19.3015 22.5317H9.83643ZM9.83643 20.6994C9.57756 20.6994 9.36768 20.4896 9.36768 20.2307C9.36768 19.9718 9.57756 19.7619 9.83643 19.7619H19.3015C19.5604 19.7619 19.7702 19.9718 19.7702 20.2307C19.7702 20.4896 19.5604 20.6994 19.3015 20.6994H9.83643ZM9.83643 27.0514C9.57756 27.0514 9.36768 26.8415 9.36768 26.5827C9.36768 26.3238 9.57756 26.1139 9.83643 26.1139H19.3015C19.5604 26.1139 19.7702 26.3238 19.7702 26.5827C19.7702 26.8415 19.5604 27.0514 19.3015 27.0514H9.83643Z" fill="#A79BA7"/>
<path fill-rule="evenodd" clip-rule="evenodd" d="M5.43123 16.0423C5.24818 15.8592 5.24818 15.5625 5.43123 15.3795C5.61428 15.1964 5.91105 15.1964 6.09404 15.3795L6.67875 15.9642L7.26346 15.3795C7.4465 15.1964 7.74328 15.1964 7.92627 15.3795C8.10932 15.5625 8.10932 15.8593 7.92627 16.0423L7.34156 16.627L7.92627 17.2117C8.10932 17.3947 8.10932 17.6915 7.92627 17.8745C7.74322 18.0576 7.44644 18.0576 7.26346 17.8745L6.67875 17.2898L6.09404 17.8745C5.911 18.0576 5.61422 18.0576 5.43123 17.8745C5.24818 17.6915 5.24818 17.3947 5.43123 17.2117L6.01594 16.627L5.43123 16.0423Z" fill="#FE646F"/>
<path fill-rule="evenodd" clip-rule="evenodd" d="M5.43123 20.5621C5.24818 20.379 5.24818 20.0822 5.43123 19.8992C5.61428 19.7162 5.91105 19.7162 6.09404 19.8992L6.67875 20.484L7.26346 19.8992C7.4465 19.7162 7.74328 19.7162 7.92627 19.8992C8.10932 20.0823 8.10932 20.3791 7.92627 20.5621L7.34156 21.1468L7.92627 21.7315C8.10932 21.9145 8.10932 22.2113 7.92627 22.3943C7.74322 22.5773 7.44644 22.5773 7.26346 22.3943L6.67875 21.8096L6.09404 22.3943C5.911 22.5773 5.61422 22.5773 5.43123 22.3943C5.24824 22.2112 5.24818 21.9145 5.43123 21.7315L6.01594 21.1468L5.43123 20.5621Z" fill="#FE646F"/>
<path fill-rule="evenodd" clip-rule="evenodd" d="M5.43123 25.0818C5.24818 24.8988 5.24818 24.602 5.43123 24.419C5.61428 24.236 5.91105 24.236 6.09404 24.419L6.67875 25.0037L7.26346 24.419C7.4465 24.236 7.74328 24.236 7.92627 24.419C8.10932 24.6021 8.10932 24.8988 7.92627 25.0818L7.34156 25.6665L7.92627 26.2512C8.10932 26.4343 8.10932 26.7311 7.92627 26.9141C7.74322 27.0971 7.44644 27.0971 7.26346 26.9141L6.67875 26.3294L6.09404 26.9141C5.911 27.0971 5.61422 27.0971 5.43123 26.9141C5.24818 26.731 5.24818 26.4342 5.43123 26.2512L6.01594 25.6665L5.43123 25.0818Z" fill="#FE646F"/>
<path d="M22.5462 29.0206C25.4045 28.6312 27.4059 25.9985 27.0165 23.1403C26.6271 20.282 23.9945 18.2806 21.1362 18.67C18.278 19.0594 16.2766 21.6921 16.6659 24.5503C17.0553 27.4085 19.688 29.4099 22.5462 29.0206Z" fill="#FE646F"/>
<path fill-rule="evenodd" clip-rule="evenodd" d="M21.8392 18.6179C24.7234 18.6179 27.0615 20.956 27.0615 23.8402C27.0615 26.7244 24.7235 29.0625 21.8392 29.0625C21.6863 29.0625 21.5349 29.0555 21.3853 29.0426C24.0568 28.8125 26.1536 26.5714 26.1536 23.8402C26.1536 21.109 24.0568 18.8679 21.3853 18.6378C21.5349 18.6249 21.6863 18.6179 21.8392 18.6179Z" fill="#FD4755"/>
<path fill-rule="evenodd" clip-rule="evenodd" d="M20.7275 23.8402L19.3224 22.4351C19.0163 22.129 19.0163 21.6294 19.3224 21.3233C19.6285 21.0172 20.1281 21.0172 20.4342 21.3233L21.8393 22.7284L23.2444 21.3233C23.5504 21.0172 24.0501 21.0173 24.3561 21.3233C24.6622 21.6294 24.6622 22.129 24.3561 22.4351L22.9511 23.8402L24.3561 25.2452C24.6622 25.5513 24.6622 26.051 24.3561 26.3571C24.05 26.6631 23.5504 26.6631 23.2443 26.3571L21.8392 24.952L20.4342 26.3571C20.1281 26.6631 19.6284 26.6631 19.3223 26.3571C19.0162 26.051 19.0162 25.5513 19.3223 25.2452L20.7275 23.8402Z" fill="#ECEFF1"/>
<path fill-rule="evenodd" clip-rule="evenodd" d="M20.7274 23.8402L19.3223 22.4351C19.0163 22.129 19.0163 21.6294 19.3223 21.3233C19.5511 21.0945 19.8878 21.0368 20.1713 21.1499C20.0754 21.1882 19.9857 21.2459 19.9083 21.3233C19.6022 21.6294 19.6022 22.129 19.9083 22.4351L21.3134 23.8402L19.9083 25.2452C19.6022 25.5513 19.6022 26.051 19.9083 26.3571C19.9857 26.4344 20.0754 26.4922 20.1713 26.5304C19.8879 26.6435 19.5511 26.5858 19.3223 26.3571C19.0163 26.051 19.0163 25.5513 19.3223 25.2452L20.7274 23.8402ZM21.8392 22.7284L23.2443 21.3233C23.473 21.0946 23.8098 21.0368 24.0932 21.1499C23.9974 21.1882 23.9076 21.2459 23.8303 21.3233L22.1321 23.0214L21.8392 22.7284ZM24.0932 26.5304C23.8099 26.6435 23.4731 26.5858 23.2443 26.3571L21.8392 24.952L22.1322 24.659L23.8303 26.3571C23.9077 26.4344 23.9974 26.4922 24.0932 26.5304Z" fill="#D1D1D6"/>
</svg>
