<svg width="30" height="30" viewBox="0 0 30 30" fill="none" xmlns="http://www.w3.org/2000/svg">
<g clip-path="url(#clip0_137_582)">
<path d="M28.1893 2.71631H26.3784V8.1489L30.0001 6.33804V4.52717C30.0001 3.52703 29.1894 2.71631 28.1893 2.71631Z" fill="#FA342D"/>
<path d="M26.3781 2.71638H19.527L18.5117 1.70109C18.0023 1.19169 17.3114 0.905518 16.591 0.905518H10.8651C9.86492 0.905518 9.0542 1.71624 9.0542 2.71638V8.14898H28.189V4.52725C28.189 3.52711 27.3783 2.71638 26.3781 2.71638Z" fill="#FE5E49"/>
<path d="M10.8652 4.98006V8.14907H23.8582V4.52734H11.318C11.0679 4.52734 10.8652 4.73004 10.8652 4.98006Z" fill="white"/>
<path d="M28.1893 4.52734L26.3784 18.2296H28.1893C29.1894 18.2296 30.0001 17.4188 30.0001 16.4187V6.33821C30.0001 5.33807 29.1894 4.52734 28.1893 4.52734Z" fill="#FE5E49"/>
<path d="M10.8651 6.33821C9.86492 6.33821 9.0542 7.14893 9.0542 8.14907V16.4187C9.0542 17.4188 9.86492 18.2296 10.8651 18.2296H26.3781C27.3783 18.2296 28.189 17.4188 28.189 16.4187V4.52734H23.858C23.1376 4.52734 22.4467 4.81352 21.9373 5.32292L20.922 6.33821H10.8651Z" fill="#FE8566"/>
<path d="M23.6619 8.14893H21.8511V13.5815L25.4728 11.7707V9.95979C25.4728 8.95965 24.6621 8.14893 23.6619 8.14893Z" fill="#FCBE64"/>
<path d="M21.8513 8.149H15.0002L13.9849 7.13371C13.4755 6.62431 12.7846 6.33813 12.0642 6.33813H6.33821C5.33807 6.33813 4.52734 7.14886 4.52734 8.149V13.5816H23.6622V9.95987C23.6622 8.95972 22.8514 8.149 21.8513 8.149Z" fill="#FBDB63"/>
<path d="M6.33789 10.4127V13.5817H19.3308V9.95996H6.79061C6.54059 9.95996 6.33789 10.1627 6.33789 10.4127Z" fill="white"/>
<path d="M23.6619 9.95996L21.8511 23.6622H23.6619C24.6621 23.6622 25.4728 22.8514 25.4728 21.8513V11.7708C25.4728 10.7707 24.6621 9.95996 23.6619 9.95996Z" fill="#FBDB63"/>
<path d="M6.33821 11.7708C5.33807 11.7708 4.52734 12.5816 4.52734 13.5817V21.8513C4.52734 22.8514 5.33807 23.6622 6.33821 23.6622H21.8513C22.8514 23.6622 23.6622 22.8514 23.6622 21.8513V9.95996H19.3312C18.6107 9.95996 17.9198 10.2461 17.4104 10.7555L16.3952 11.7708H6.33821Z" fill="#FEF77D"/>
<path d="M19.1346 13.5815H17.3237V19.0141L20.9455 17.2033V15.3924C20.9455 14.3923 20.1347 13.5815 19.1346 13.5815Z" fill="#6D7CD6"/>
<path d="M17.3239 13.5816H10.4728L9.45755 12.5663C8.94815 12.0569 8.25724 11.7708 7.53682 11.7708H1.81087C0.810724 11.7708 0 12.5815 0 13.5816V19.0142H19.1348V15.3925C19.1348 14.3923 18.3241 13.5816 17.3239 13.5816Z" fill="#7D99E8"/>
<path d="M1.81079 15.8451V19.0141H10.4728V15.3923H2.26351C2.01349 15.3923 1.81079 15.595 1.81079 15.8451Z" fill="white"/>
<path d="M19.1346 15.3923L17.3237 29.0945H19.1346C20.1347 29.0945 20.9455 28.2838 20.9455 27.2837V17.2032C20.9455 16.2031 20.1347 15.3923 19.1346 15.3923Z" fill="#7D99E8"/>
<path d="M19.1348 27.2837V15.3923H10.4728C9.75241 15.3923 9.06151 15.6785 8.55211 16.1879L7.53682 17.2032H1.81087C0.810724 17.2032 0 18.0139 0 19.0141V27.2837C0 28.2838 0.810724 29.0945 1.81087 29.0945H17.3239C18.3241 29.0945 19.1348 28.2838 19.1348 27.2837Z" fill="#83B3F1"/>
</g>
<defs>
<clipPath id="clip0_137_582">
<rect width="30" height="30" fill="white"/>
</clipPath>
</defs>
</svg>
