<svg width="30" height="30" viewBox="0 0 30 30" fill="none" xmlns="http://www.w3.org/2000/svg">
<g clip-path="url(#clip0_182_637)">
<path d="M23.9058 21.0674H8.70656C8.25994 21.0674 7.89795 20.7054 7.89795 20.2588V0.808612C7.89789 0.362052 8.25994 0 8.70656 0H23.9058C24.3524 0 24.7144 0.362052 24.7144 0.808612V20.2588C24.7144 20.7054 24.3524 21.0674 23.9058 21.0674Z" fill="#C8EFFE"/>
<path d="M24.7144 0.808853V20.2588C24.7144 20.7054 24.3522 21.0676 23.9055 21.0676H22.4502C22.8969 21.0676 23.259 20.7054 23.259 20.2588V0.808853C23.259 0.362173 22.8969 0 22.4502 0H23.9055C24.3522 0 24.7144 0.362173 24.7144 0.808853Z" fill="#99E6FC"/>
<path d="M19.3902 23.7039H4.19094C3.74432 23.7039 3.38232 23.3418 3.38232 22.8953V3.44509C3.38232 2.99847 3.74438 2.63647 4.19094 2.63647H19.3901C19.8368 2.63647 20.1987 2.99853 20.1987 3.44509V22.8952C20.1988 23.3418 19.8368 23.7039 19.3902 23.7039Z" fill="#EAF6FF"/>
<path d="M20.1995 3.44497V22.8955C20.1995 23.3421 19.8373 23.7043 19.3906 23.7043H17.9648C18.4115 23.7043 18.7737 23.3421 18.7737 22.8955V3.44497C18.7737 2.99889 18.4115 2.63672 17.9648 2.63672H19.3906C19.8373 2.63672 20.1995 2.99889 20.1995 3.44497Z" fill="#99E6FC"/>
<path d="M26.6798 11.0366V26.505C26.6798 27.6434 25.7568 28.5663 24.6184 28.5663H3.47896C2.33993 28.5663 1.41699 27.6434 1.41699 26.505V14.6444C1.41699 13.506 2.33993 12.583 3.47896 12.583H12.9522C13.7242 12.583 14.4262 12.1345 14.751 11.4337L15.1307 10.6146C15.4554 9.91382 16.1574 9.46533 16.9295 9.46533H25.1085C25.9765 9.46533 26.6798 10.1686 26.6798 11.0366Z" fill="#FFD15B"/>
<path d="M26.6797 11.0366V26.505C26.6797 27.6434 25.7568 28.5663 24.6183 28.5663H23.1226C24.261 28.5663 25.1839 27.6434 25.1839 26.505V11.0366C25.1839 10.1686 24.4807 9.46533 23.6133 9.46533H25.1085C25.9765 9.46533 26.6797 10.1686 26.6797 11.0366Z" fill="#FEB137"/>
<path d="M26.6796 18.0772V26.505C26.6796 27.6434 25.7566 28.5664 24.6182 28.5664H14.2667C14.0898 28.2151 13.9902 27.8185 13.9902 27.3984V19.4927C13.9902 18.0561 15.1552 16.8911 16.5918 16.8911L18.0763 16.8913L26.6796 18.0772Z" fill="#FEB137"/>
<path d="M25.9816 30H18.0763C16.6395 30 15.4746 28.8352 15.4746 27.3983V19.4931C15.4746 18.0562 16.6394 16.8914 18.0763 16.8914H25.9816C27.4184 16.8914 28.5833 18.0562 28.5833 19.4931V27.3983C28.5833 28.8352 27.4184 30 25.9816 30Z" fill="#0593FC"/>
<path d="M25.9815 16.8914H24.4971C25.9339 16.8914 27.0988 18.0562 27.0988 19.4931V27.3983C27.0988 28.8352 25.934 30 24.4971 30H25.9815C27.4184 30 28.5832 28.8352 28.5832 27.3983V19.4931C28.5832 18.0562 27.4184 16.8914 25.9815 16.8914Z" fill="#0181FA"/>
<path d="M11.3744 19.36H4.82481C4.41241 19.36 4.07812 19.0257 4.07812 18.6133V17.638C4.07812 17.2256 4.41241 16.8914 4.82481 16.8914H11.3743C11.7867 16.8914 12.121 17.2256 12.121 17.638V18.6133C12.121 19.0257 11.7867 19.36 11.3744 19.36Z" fill="#EAF6FF"/>
<path d="M12.1212 17.6378V18.6132C12.1212 19.0255 11.7868 19.3599 11.3745 19.3599H10.1733C10.5862 19.3599 10.92 19.0255 10.92 18.6132V17.6378C10.92 17.2255 10.5862 16.8911 10.1733 16.8911H11.3745C11.7868 16.8911 12.1212 17.2255 12.1212 17.6378Z" fill="#C8EFFE"/>
<path d="M9.08915 6.77022H6.20408C5.74943 6.77022 5.38086 6.40165 5.38086 5.947C5.38086 5.49235 5.74943 5.12378 6.20408 5.12378H9.08915C9.5438 5.12378 9.91237 5.49235 9.91237 5.947C9.91237 6.40165 9.5438 6.77022 9.08915 6.77022Z" fill="#0593FC"/>
<path d="M9.9126 5.94688C9.9126 6.17384 9.82025 6.38028 9.67176 6.52877C9.52266 6.67786 9.31683 6.77022 9.08987 6.77022H7.86572C8.09329 6.77022 8.29912 6.67786 8.44822 6.52877C8.59731 6.38028 8.68906 6.17384 8.68906 5.94688C8.68906 5.49235 8.32085 5.12354 7.86572 5.12354H9.08987C9.54439 5.12354 9.9126 5.49235 9.9126 5.94688Z" fill="#0181FA"/>
<path d="M17.3196 6.39957H11.5865C11.3364 6.39957 11.1338 6.19694 11.1338 5.94686C11.1338 5.69678 11.3364 5.49414 11.5865 5.49414H17.3196C17.5697 5.49414 17.7724 5.69678 17.7724 5.94686C17.7724 6.19694 17.5697 6.39957 17.3196 6.39957Z" fill="#99E6FC"/>
<path d="M13.012 8.96989H9.25594C9.00586 8.96989 8.80322 8.76725 8.80322 8.51717C8.80322 8.26709 9.00586 8.06445 9.25594 8.06445H13.012C13.2621 8.06445 13.4647 8.26709 13.4647 8.51717C13.4647 8.76725 13.2621 8.96989 13.012 8.96989Z" fill="#99E6FC"/>
<path d="M7.11374 8.96989H5.83406C5.58398 8.96989 5.38135 8.76725 5.38135 8.51717C5.38135 8.26709 5.58398 8.06445 5.83406 8.06445H7.11374C7.36382 8.06445 7.56646 8.26709 7.56646 8.51717C7.56646 8.76725 7.36382 8.96989 7.11374 8.96989Z" fill="#99E6FC"/>
<path d="M13.012 10.8158H5.83406C5.58398 10.8158 5.38135 10.6132 5.38135 10.3631C5.38135 10.113 5.58398 9.9104 5.83406 9.9104H13.012C13.2621 9.9104 13.4647 10.113 13.4647 10.3631C13.4647 10.6132 13.2621 10.8158 13.012 10.8158Z" fill="#99E6FC"/>
<path d="M25.3053 24.409L22.9577 27.3345C22.4811 27.9284 21.5772 27.9284 21.1006 27.3345L18.753 24.409C18.1705 23.7214 18.7097 22.5859 19.6149 22.6122H19.9953C20.288 22.6122 20.5253 22.3749 20.5253 22.0822V19.7057C20.5253 19.3776 20.7913 19.1116 21.1195 19.1116H22.9387C23.2668 19.1116 23.5329 19.3776 23.5329 19.7057V22.0822C23.5329 22.3749 23.7701 22.6122 24.0628 22.6122H24.4433C25.3484 22.5859 25.8879 23.7214 25.3053 24.409Z" fill="#C8EFFE"/>
<path d="M25.3051 24.409L22.9575 27.3345C22.4809 27.9284 21.577 27.9284 21.1004 27.3345L20.9702 27.1723C21.3243 27.1803 21.6813 27.0331 21.9259 26.7283L23.8206 24.409C24.4032 23.7214 23.8637 22.5858 22.9587 22.6122H22.5782C22.2855 22.6122 22.0482 22.3749 22.0482 22.0822V19.7057C22.0482 19.3776 21.7822 19.1116 21.4541 19.1116H22.9385C23.2666 19.1116 23.5326 19.3776 23.5326 19.7057V22.0822C23.5326 22.3749 23.7699 22.6122 24.0626 22.6122H24.4431C25.3482 22.5858 25.8877 23.7213 25.3051 24.409Z" fill="#99E6FC"/>
</g>
<defs>
<clipPath id="clip0_182_637">
<rect width="30" height="30" fill="white"/>
</clipPath>
</defs>
</svg>
