<svg width="30" height="30" viewBox="0 0 30 30" fill="none" xmlns="http://www.w3.org/2000/svg">
<g clip-path="url(#clip0_137_417)">
<path d="M22.9102 0H9.72656C8.27033 0 7.08984 1.18049 7.08984 2.63672V27.3633C7.08984 28.8195 8.27033 30 9.72656 30H27.3047C28.7609 30 29.9414 28.8195 29.9414 27.3633V7.03125L22.9102 0Z" fill="#E4F2F9"/>
<path d="M22.9102 0H18.5156V30H27.3047C28.7609 30 29.9414 28.8195 29.9414 27.3633V7.03125L22.9102 0Z" fill="#BDE0F1"/>
<path d="M22.9102 0V6.15234C22.9102 6.63773 23.3037 7.03125 23.7891 7.03125H29.9414L22.9102 0Z" fill="#77BEE2"/>
<path d="M24.9609 17.6953H12.0703C11.5849 17.6953 11.1914 17.3018 11.1914 16.8164C11.1914 16.331 11.5849 15.9375 12.0703 15.9375H24.9609C25.4463 15.9375 25.8398 16.331 25.8398 16.8164C25.8398 17.3018 25.4463 17.6953 24.9609 17.6953Z" fill="#5F5F82"/>
<path d="M24.9609 12.4219H12.0703C11.5849 12.4219 11.1914 12.0284 11.1914 11.543C11.1914 11.0576 11.5849 10.6641 12.0703 10.6641H24.9609C25.4463 10.6641 25.8398 11.0576 25.8398 11.543C25.8398 12.0284 25.4463 12.4219 24.9609 12.4219Z" fill="#5F5F82"/>
<path d="M24.9609 22.9688H12.0703C11.5849 22.9688 11.1914 22.5752 11.1914 22.0898C11.1914 21.6045 11.5849 21.2109 12.0703 21.2109H24.9609C25.4463 21.2109 25.8398 21.6045 25.8398 22.0898C25.8398 22.5752 25.4463 22.9688 24.9609 22.9688Z" fill="#5F5F82"/>
<path d="M25.8398 16.8164C25.8398 16.331 25.4463 15.9375 24.9609 15.9375H18.5156V17.6953H24.9609C25.4463 17.6953 25.8398 17.3018 25.8398 16.8164Z" fill="#3C3C55"/>
<path d="M25.8398 11.543C25.8398 11.0576 25.4463 10.6641 24.9609 10.6641H18.5156V12.4219H24.9609C25.4463 12.4219 25.8398 12.0284 25.8398 11.543Z" fill="#3C3C55"/>
<path d="M24.9609 22.9688C25.4463 22.9688 25.8398 22.5752 25.8398 22.0898C25.8398 21.6045 25.4463 21.2109 24.9609 21.2109H18.5156V22.9688H24.9609Z" fill="#3C3C55"/>
<path d="M7.96875 30C3.60709 30 0.0585938 26.4515 0.0585938 22.0898C0.0585938 17.7282 3.60709 14.1797 7.96875 14.1797C12.3304 14.1797 15.8789 17.7282 15.8789 22.0898C15.8789 26.4515 12.3304 30 7.96875 30Z" fill="#FF7350"/>
<path d="M7.96875 14.1797V30C12.3304 30 15.8789 26.4515 15.8789 22.0898C15.8789 17.7282 12.3304 14.1797 7.96875 14.1797Z" fill="#FF4B20"/>
<path d="M7.96875 15.9375C4.57635 15.9375 1.81641 18.6974 1.81641 22.0898C1.81641 25.4822 4.57635 28.2422 7.96875 28.2422C11.3612 28.2422 14.1211 25.4822 14.1211 22.0898C14.1211 18.6974 11.3612 15.9375 7.96875 15.9375Z" fill="#E4F2F9"/>
<path d="M7.96875 15.9375V28.2422C11.3612 28.2422 14.1211 25.4822 14.1211 22.0898C14.1211 18.6974 11.3612 15.9375 7.96875 15.9375Z" fill="#BDE0F1"/>
<path d="M10.3125 21.2109H8.84766V18.5742C8.84766 18.0888 8.45414 17.6953 7.96875 17.6953C7.48336 17.6953 7.08984 18.0888 7.08984 18.5742V22.0898C7.08984 22.5752 7.48336 22.9688 7.96875 22.9688H10.3125C10.7979 22.9688 11.1914 22.5752 11.1914 22.0898C11.1914 21.6045 10.7979 21.2109 10.3125 21.2109Z" fill="#5F5F82"/>
<path d="M10.3125 21.2109H8.84766V18.5742C8.84766 18.0888 8.45414 17.6953 7.96875 17.6953V22.9688H10.3125C10.7979 22.9688 11.1914 22.5752 11.1914 22.0898C11.1914 21.6045 10.7979 21.2109 10.3125 21.2109Z" fill="#3C3C55"/>
</g>
<defs>
<clipPath id="clip0_137_417">
<rect width="30" height="30" fill="white"/>
</clipPath>
</defs>
</svg>
