<svg width="30" height="30" viewBox="0 0 30 30" fill="none" xmlns="http://www.w3.org/2000/svg">
<g clip-path="url(#clip0_137_376)">
<path d="M14.4152 27.9718H0.603622C0.270241 27.9718 0 27.7016 0 27.3682V5.38756C0 5.05418 0.270241 4.78394 0.603622 4.78394H14.4152C14.7486 4.78394 15.0188 5.05418 15.0188 5.38756V27.3681C15.0188 27.7015 14.7486 27.9718 14.4152 27.9718Z" fill="#E1EBF0"/>
<path d="M15.0188 5.38731V25.8815C15.0188 26.2149 14.7486 26.4851 14.4152 26.4851H2.0814C1.74802 26.4851 1.47778 26.2149 1.47778 25.8815V5.38731C1.47778 5.05393 1.74802 4.78369 2.0814 4.78369H14.4152C14.7486 4.78369 15.0188 5.05393 15.0188 5.38731Z" fill="#D2E4E7"/>
<path d="M19.216 25.5799H2.98643C2.65305 25.5799 2.38281 25.3097 2.38281 24.9763V2.99571C2.38281 2.66233 2.65305 2.39209 2.98643 2.39209H19.216C19.5494 2.39209 19.8196 2.66233 19.8196 2.99571V24.9763C19.8196 25.3097 19.5493 25.5799 19.216 25.5799Z" fill="#E1EBF0"/>
<path d="M19.8201 2.99571V23.4899C19.8201 23.8233 19.5499 24.0935 19.2165 24.0935H4.46397C4.13059 24.0935 3.86035 23.8233 3.86035 23.4899V2.99571C3.86035 2.66233 4.13059 2.39209 4.46397 2.39209H19.2165C19.5499 2.39209 19.8201 2.66233 19.8201 2.99571Z" fill="#D2E4E7"/>
<path d="M4.76562 22.5845V0.603622C4.76562 0.270241 5.03587 0 5.36925 0H21.5988C21.9322 0 22.2024 0.270241 22.2024 0.603622V22.5845C22.2024 22.9179 21.9322 23.1881 21.5988 23.1881H5.36925C5.03587 23.1881 4.76562 22.9179 4.76562 22.5845Z" fill="#E1EBF0"/>
<path d="M15.1597 8.16083H19.9385C20.1052 8.16083 20.2403 8.02568 20.2403 7.85902V3.05962C20.2403 2.89296 20.1052 2.75781 19.9385 2.75781H15.1597C14.9931 2.75781 14.8579 2.89296 14.8579 3.05962V7.85902C14.8579 8.02568 14.993 8.16083 15.1597 8.16083Z" fill="#F3D332"/>
<path d="M16.3665 8.16107H15.1592C14.9926 8.16107 14.8574 8.02586 14.8574 7.85926V3.05987C14.8574 2.89327 14.9926 2.75806 15.1592 2.75806H16.3665C16.1999 2.75806 16.0647 2.89327 16.0647 3.05987V7.85926C16.0647 8.02586 16.1999 8.16107 16.3665 8.16107Z" fill="#ECC52E"/>
<path d="M12.8955 7.88175H6.72811C6.47803 7.88175 6.27539 7.67912 6.27539 7.42903C6.27539 7.17895 6.47803 6.97632 6.72811 6.97632H12.8955C13.1456 6.97632 13.3482 7.17895 13.3482 7.42903C13.3482 7.67912 13.1455 7.88175 12.8955 7.88175Z" fill="#B4D2D7"/>
<path d="M16.596 11.7089H10.3726C10.1226 11.7089 9.91992 11.5063 9.91992 11.2562C9.91992 11.0061 10.1226 10.8035 10.3726 10.8035H16.596C16.8461 10.8035 17.0488 11.0061 17.0488 11.2562C17.0488 11.5063 16.8461 11.7089 16.596 11.7089Z" fill="#B4D2D7"/>
<path d="M12.8955 5.91202H6.72811C6.47803 5.91202 6.27539 5.70939 6.27539 5.45931C6.27539 5.20923 6.47803 5.00659 6.72811 5.00659H12.8955C13.1456 5.00659 13.3482 5.20923 13.3482 5.45931C13.3482 5.70939 13.1455 5.91202 12.8955 5.91202Z" fill="#B4D2D7"/>
<path d="M12.8955 3.9423H6.72811C6.47803 3.9423 6.27539 3.73966 6.27539 3.48958C6.27539 3.2395 6.47803 3.03687 6.72811 3.03687H12.8955C13.1456 3.03687 13.3482 3.2395 13.3482 3.48958C13.3482 3.73966 13.1455 3.9423 12.8955 3.9423Z" fill="#B4D2D7"/>
<path d="M16.0151 16.7179H6.72811C6.47803 16.7179 6.27539 16.5153 6.27539 16.2652C6.27539 16.0151 6.47803 15.8125 6.72811 15.8125H16.0151C16.2652 15.8125 16.4678 16.0151 16.4678 16.2652C16.4678 16.5153 16.2652 16.7179 16.0151 16.7179Z" fill="#B4D2D7"/>
<path d="M14.0729 14.1855H6.72811C6.47803 14.1855 6.27539 13.9828 6.27539 13.7327C6.27539 13.4827 6.47803 13.28 6.72811 13.28H14.0729C14.3229 13.28 14.5256 13.4827 14.5256 13.7327C14.5256 13.9828 14.3229 14.1855 14.0729 14.1855Z" fill="#B4D2D7"/>
<path d="M20.2683 14.1855H16.0352C15.7852 14.1855 15.5825 13.9828 15.5825 13.7327C15.5825 13.4827 15.7852 13.28 16.0352 13.28H20.2683C20.5184 13.28 20.721 13.4827 20.721 13.7327C20.721 13.9828 20.5184 14.1855 20.2683 14.1855Z" fill="#B4D2D7"/>
<path d="M23.8413 19.3606C24.1746 19.3606 24.4449 19.6308 24.4449 19.9642V20.3741C24.4449 21.9278 23.19 23.1882 21.6417 23.1882L12.4892 23.49L7.5127 23.1882C9.06098 23.1882 10.3165 21.9278 10.3165 20.3741V19.9642C10.3165 19.6308 10.5868 19.3606 10.9201 19.3606H23.8413Z" fill="#D2E4E7"/>
<path d="M22.2026 15.5294V19.3605H15.9116C17 17.0408 19.3456 15.5239 21.9424 15.5239C22.0293 15.5239 22.1162 15.5257 22.2026 15.5294Z" fill="#D2E4E7"/>
<path d="M19.8197 19.3606V23.49C19.8197 23.8232 19.5493 24.0936 19.2161 24.0936H15.5509C15.4833 23.8654 15.4284 23.6324 15.3855 23.3946C15.3155 23.0083 15.2793 22.6099 15.2793 22.2037C15.2793 21.4437 15.4055 20.6976 15.6554 19.9859C15.7308 19.7717 15.8159 19.5634 15.9113 19.3606H19.8197Z" fill="#B4D2D7"/>
<path d="M26.5422 25.1465L29.6065 27.8731C30.1144 28.3739 30.133 29.1723 29.6481 29.6528C29.1639 30.1326 28.3618 30.1126 27.859 29.6082L24.7983 26.8669L26.5422 25.1465Z" fill="#F3D332"/>
<path d="M27.4517 25.9557C26.9888 26.6372 26.4027 27.2287 25.7266 27.6977L24.7988 26.8672L26.5427 25.1462L27.4517 25.9557Z" fill="#ECC52E"/>
<path d="M19.8201 23.49V24.9761C19.8201 25.3093 19.5497 25.5797 19.2165 25.5797H16.1953C15.9231 25.1174 15.7058 24.6188 15.5513 24.0936H19.2165C19.5497 24.0936 19.8201 23.8232 19.8201 23.49Z" fill="#D2E4E7"/>
<path d="M16.4863 22.2038C16.4863 21.5665 16.5949 20.9547 16.7946 20.3858C17.5418 18.2572 19.5642 16.7314 21.9418 16.7314C24.9548 16.7314 27.3973 19.1815 27.3973 22.2038C27.3973 25.226 24.9548 27.6761 21.9418 27.6761C18.9288 27.6761 16.4863 25.2261 16.4863 22.2038Z" fill="#30579D"/>
<path d="M26.1212 25.7203C25.1216 26.9161 23.6204 27.6761 21.9423 27.6761C18.9291 27.6761 16.4868 25.226 16.4868 22.2036C16.4868 21.5662 16.5955 20.9547 16.7947 20.3855C17.1641 19.3334 17.8456 18.4286 18.7275 17.7827C18.3104 18.2807 17.9802 18.8541 17.7605 19.4801C17.5613 20.0493 17.4526 20.6608 17.4526 21.2982C17.4526 24.3205 19.8949 26.7706 22.9081 26.7706C24.1094 26.7706 25.22 26.3807 26.1212 25.7203Z" fill="#30569F"/>
<path d="M18.5356 22.2038C18.5356 21.8059 18.6034 21.4238 18.7281 21.0687C19.1947 19.7397 20.4573 18.7871 21.9418 18.7871C23.823 18.7871 25.348 20.3168 25.348 22.2038C25.348 24.0908 23.823 25.6205 21.9418 25.6205C20.0606 25.6205 18.5356 24.0908 18.5356 22.2038Z" fill="#E1EBF0"/>
<path d="M24.8742 23.9426C24.2814 24.9471 23.1901 25.6201 21.9424 25.6201C20.0609 25.6201 18.5361 24.0905 18.5361 22.2036C18.5361 21.8058 18.6037 21.4237 18.7287 21.0688C18.9973 20.3034 19.5297 19.663 20.2172 19.2573C20.1043 19.4475 20.0102 19.6497 19.9359 19.8616C19.811 20.2165 19.7434 20.5986 19.7434 20.9964C19.7434 22.8833 21.2681 24.4129 23.1496 24.4129C23.7792 24.4129 24.3683 24.2414 24.8742 23.9426Z" fill="#D2E4E7"/>
</g>
<defs>
<clipPath id="clip0_137_376">
<rect width="30" height="30" fill="white"/>
</clipPath>
</defs>
</svg>
