<svg width="24" height="24" viewBox="0 0 24 24" fill="none" xmlns="http://www.w3.org/2000/svg">
<path fill-rule="evenodd" clip-rule="evenodd" d="M21.5303 6.46967C21.8232 6.76256 21.8232 7.23744 21.5303 7.53033L13.5303 15.5303C13.2374 15.8232 12.7626 15.8232 12.4697 15.5303L9 12.0607L3.53033 17.5303C3.23744 17.8232 2.76256 17.8232 2.46967 17.5303C2.17678 17.2374 2.17678 16.7626 2.46967 16.4697L8.46967 10.4697C8.76256 10.1768 9.23744 10.1768 9.53033 10.4697L13 13.9393L20.4697 6.46967C20.7626 6.17678 21.2374 6.17678 21.5303 6.46967Z" fill="#2F2F2F"/>
<path fill-rule="evenodd" clip-rule="evenodd" d="M13.25 7C13.25 6.58579 13.5858 6.25 14 6.25H21C21.4142 6.25 21.75 6.58579 21.75 7V14C21.75 14.4142 21.4142 14.75 21 14.75C20.5858 14.75 20.25 14.4142 20.25 14V7.75H14C13.5858 7.75 13.25 7.41421 13.25 7Z" fill="#2F2F2F"/>
</svg>
