<svg width="232" height="61" viewBox="0 0 232 61" fill="none" xmlns="http://www.w3.org/2000/svg">
<g clip-path="url(#clip0_60_4831)">
<path d="M214.124 0.313477H190.784C180.802 0.313477 172.71 8.6109 172.71 18.8463V42.7807C172.71 53.0161 180.802 61.3135 190.784 61.3135H214.124C224.106 61.3135 232.198 53.0161 232.198 42.7807V18.8463C232.198 8.6109 224.106 0.313477 214.124 0.313477Z" fill="#38437C"/>
<path d="M180.767 38.5975L185.051 42.9901C186.042 43.9641 187.616 43.9485 188.593 42.9513L192.842 38.5936C193.172 38.2521 193.172 37.7088 192.842 37.3712L187.401 31.7912C187.113 31.4963 186.564 31.4303 186.209 31.7912L180.771 37.3712C180.442 37.7088 180.442 38.256 180.771 38.5936" fill="white"/>
<path d="M187.283 45.2755L191.654 49.7535C192.452 50.5684 193.508 51.0185 194.636 51.0185C195.763 51.0185 196.823 50.5684 197.617 49.7535L208.501 38.5973C208.785 38.3063 208.86 37.7475 208.501 37.375L203.059 31.7949C202.73 31.4573 202.196 31.4573 201.867 31.7949L189.796 44.1773C189.239 44.7516 188.297 45.0582 187.427 44.9845C187.268 44.9728 187.177 45.163 187.29 45.2755" fill="white"/>
<path d="M209.803 16.3551L205.432 11.8771C203.423 9.81658 200.717 10.6043 199.468 11.8771L188.6 23.0216C188.494 23.1303 188.407 23.2622 188.373 23.4135C188.293 23.724 188.377 24.0383 188.589 24.2556L194.026 29.8356C194.356 30.1732 194.889 30.1693 195.218 29.8356L207.29 17.4532C207.85 16.8789 208.792 16.5724 209.659 16.6461C209.818 16.6577 209.909 16.4715 209.795 16.3551" fill="white"/>
<path d="M204.246 45.3994C203.917 45.737 203.917 46.2841 204.246 46.6217L207.3 49.7532C208.943 51.4373 211.618 51.4373 213.264 49.7532L224.144 38.5971C224.473 38.2595 224.473 37.7084 224.144 37.3747L218.702 31.7947C218.411 31.492 217.877 31.4183 217.51 31.7947L204.243 45.3994H204.246Z" fill="white"/>
<path d="M216.316 24.2558C216.645 23.9182 216.645 23.3711 216.316 23.0335L212.032 18.6409C211.041 17.6669 209.467 17.6824 208.49 18.6797L204.241 23.0374C203.911 23.375 203.911 23.9221 204.241 24.2636L209.678 29.8397C210.08 30.2433 210.628 30.0919 210.87 29.8397L216.312 24.2597L216.316 24.2558Z" fill="white"/>
<path d="M156.16 25.9171H157.532C157.678 25.9171 157.783 25.8038 157.783 25.6547V10.7975C157.783 10.6484 157.678 10.541 157.532 10.541H156.16C156.014 10.541 155.916 10.6484 155.916 10.7975V25.6547C155.916 25.7978 156.014 25.9171 156.16 25.9171Z" fill="#353535"/>
<path d="M44.3308 26.044C44.4646 26.0202 44.5286 25.9247 44.5286 25.7935V24.6126C44.5286 24.4814 44.4355 24.3919 44.2843 24.3919C44.0284 24.3919 43.7434 24.4515 43.4642 24.4515C42.4347 24.4515 41.3877 24.1653 41.3877 22.8531V16.4534H39.6893C39.5614 16.4534 39.4741 16.5428 39.4741 16.674V22.8471C39.4741 25.4595 41.1667 26.1514 42.9174 26.1514C43.3944 26.1514 43.8771 26.1096 44.3308 26.044Z" fill="#353535"/>
<path d="M16.5752 12.6476C17.2615 12.6476 17.7675 12.0989 17.7675 11.4309C17.7675 10.7629 17.2615 10.1843 16.5752 10.1843C15.8888 10.1843 15.3828 10.733 15.3828 11.4309C15.3828 12.1287 15.9005 12.6476 16.5752 12.6476Z" fill="#353535"/>
<path d="M44.5207 16.2256V15.0626C44.5207 14.9314 44.4277 14.8359 44.2997 14.8359H41.374V16.4463H44.2997C44.4277 16.4463 44.5207 16.3568 44.5207 16.2256Z" fill="#353535"/>
<path d="M50.6645 14.6036C48.3612 14.6036 46.6162 15.5221 46.3603 17.7945C46.3429 17.9496 46.4475 18.0331 46.5755 18.0331H47.9598C48.0878 18.0331 48.1692 17.9675 48.1925 17.8124C48.2972 16.7687 49.3209 16.2856 50.6005 16.2856C52.2 16.2856 53.0492 16.9595 53.0492 18.8562V19.3632H54.7127C54.8407 19.3632 54.9221 19.2737 54.9221 19.1425V18.3969C54.9221 15.1404 52.7525 14.5977 50.6645 14.5977V14.6036Z" fill="#353535"/>
<path d="M45.8584 22.8814C45.8584 25.0644 47.4521 26.2453 49.6914 26.2453C51.1164 26.2453 52.3728 25.5475 53.0126 24.456H53.0533V25.6787C53.0533 25.8099 53.1406 25.8994 53.2743 25.8994H54.7168C54.8448 25.8994 54.9262 25.8099 54.9262 25.6787V21.2651C54.9262 21.1339 54.8448 21.0444 54.7168 21.0444H53.0533V21.6826C53.0533 23.4719 51.3316 24.5455 50.052 24.5455C48.9004 24.5455 47.9639 24.0146 47.9639 22.9053C47.9639 21.6587 48.8597 21.0444 50.7326 21.0444H53.0533V19.3684H50.18C47.7313 19.3684 45.8584 20.5434 45.8584 22.8874V22.8814Z" fill="#353535"/>
<path d="M35.7519 12.6476C36.4266 12.6476 36.9443 12.0989 36.9443 11.4309C36.9443 10.7629 36.4266 10.1843 35.7519 10.1843C35.0772 10.1843 34.5537 10.733 34.5537 11.4309C34.5537 12.1287 35.0656 12.6476 35.7519 12.6476Z" fill="#353535"/>
<path d="M22.4677 25.7561H21.2229C21.1124 25.7561 21.0252 25.774 20.9612 25.8695C20.4203 26.3764 20.0713 27.1339 20.0713 27.9391C20.0713 29.3109 20.8158 30.957 24.9338 30.957C29.0518 30.957 30.8317 29.2214 30.8317 26.5971C30.8317 25.2194 29.9883 24.0802 28.2724 24.0802H24.8466V23.0245C24.9978 23.0543 25.1723 23.0543 25.341 23.0543C28.2724 23.0543 29.6975 20.8833 29.6975 18.7421C29.6975 17.9786 29.523 17.2152 29.1565 16.5472H31.5006C31.6343 16.5472 31.7216 16.4518 31.7216 16.3086V15.068C31.7216 14.9309 31.6343 14.8295 31.5006 14.8295H27.2662C26.7253 14.5909 26.0738 14.4478 25.3352 14.4478C22.235 14.4478 20.7344 16.6188 20.7344 18.7421C20.7344 20.2212 21.4498 21.7183 22.9272 22.5056V24.3486L23.3808 25.2074C23.6426 25.6667 23.9043 25.7502 24.4452 25.7502H27.9176C28.5691 25.7502 28.982 26.2393 28.982 26.8834C28.9995 28.2313 27.9409 29.2751 24.928 29.287C23.2354 29.287 21.9965 28.6131 21.9674 27.4202C21.9674 26.9132 22.363 26.3526 22.6189 26.0484C22.7468 25.9052 22.7003 25.8039 22.4677 25.7561ZM22.7352 18.748C22.7352 17.4776 23.5786 16.243 25.2944 16.243C26.8998 16.243 27.7024 17.4776 27.7024 18.748C27.7024 20.0184 26.8998 21.271 25.2944 21.271C23.5786 21.271 22.7352 20.0065 22.7352 18.748Z" fill="#353535"/>
<path d="M4.59796 10.5305H2.3819C2.25976 10.5305 2.17251 10.62 2.17251 10.7452V12.2721H4.34203C7.9424 12.2721 9.61753 14.3477 9.61753 18.2603C9.61753 22.1729 7.90169 24.1531 4.29551 24.1531H2.12598V25.6799C2.12598 25.8112 2.21322 25.9006 2.33537 25.9006H4.55142C9.38487 25.9006 11.7871 23.2107 11.7871 18.2603C11.7871 13.3099 9.4314 10.5305 4.59796 10.5305Z" fill="#353535"/>
<path d="M0.337421 12.2715C0.203643 12.2715 0.122207 12.361 0.122207 12.4922L0.0756836 23.9318C0.0756836 24.063 0.157114 24.1524 0.285075 24.1524H2.11143L2.15795 12.2715H0.331599H0.337421Z" fill="#353535"/>
<path d="M17.2926 25.8998C17.4264 25.8998 17.502 25.8103 17.502 25.6791V15.0507C17.502 14.9194 17.4205 14.8359 17.2926 14.8359H14.0179C13.89 14.8359 13.8027 14.9194 13.8027 15.0507V16.1898C13.8027 16.3211 13.89 16.4046 14.0179 16.4046H15.6349V25.6791C15.6349 25.8103 15.7163 25.8998 15.8501 25.8998H17.2926Z" fill="#353535"/>
<path d="M41.1727 10.5289H39.7186C39.5965 10.5289 39.5034 10.6184 39.5034 10.7436V14.6085C39.5034 14.7397 39.5907 14.8292 39.7244 14.8292H41.3879V10.7377C41.3879 10.6124 41.2949 10.5229 41.1727 10.5229V10.5289Z" fill="#353535"/>
<path d="M33.2006 16.4046H34.8175V25.6791C34.8175 25.8103 34.9048 25.8998 35.0269 25.8998H36.481C36.6032 25.8998 36.6904 25.8103 36.6904 25.6791V15.0507C36.6904 14.9194 36.6032 14.8359 36.481 14.8359H33.2006C33.0726 14.8359 32.9854 14.9194 32.9854 15.0507V16.1898C32.9854 16.3211 33.0726 16.4046 33.2006 16.4046Z" fill="#353535"/>
<path d="M59.5184 25.6799V10.7452C59.5184 10.62 59.4253 10.5305 59.3032 10.5305H57.8549C57.7328 10.5305 57.6455 10.62 57.6455 10.7452V25.6799C57.6455 25.8112 57.7328 25.9006 57.8549 25.9006H59.3032C59.4253 25.9006 59.5184 25.8112 59.5184 25.6799Z" fill="#353535"/>
<path d="M28.9824 45.0148C28.9824 47.1978 30.5761 48.3727 32.8154 48.3727C34.2404 48.3727 35.5026 47.6749 36.1366 46.5894H36.1773V47.8121C36.1773 47.9433 36.2645 48.0268 36.3925 48.0268H37.8408C37.9688 48.0268 38.0502 47.9433 38.0502 47.8121V43.3985C38.0502 43.2673 37.9688 43.1838 37.8408 43.1838H36.1773V43.816C36.1773 45.6053 34.4498 46.6789 33.176 46.6789C32.0244 46.6789 31.0879 46.148 31.0879 45.0327C31.0879 43.7862 31.9895 43.1778 33.8565 43.1778H36.1773V41.4958H33.304C30.8553 41.4958 28.9766 42.6768 28.9766 45.0148H28.9824Z" fill="#353535"/>
<path d="M2.61974 36.6715C2.61974 34.9239 4.06221 34.1784 5.78968 34.1784C7.51716 34.1784 8.53504 35.1207 8.85494 36.4508C8.90147 36.582 8.96546 36.6476 9.09342 36.6476H10.7278C10.8849 36.6476 10.943 36.5581 10.9198 36.409C10.4312 33.7489 8.25585 32.395 5.70825 32.395C2.51504 32.395 0.473475 34.6197 0.473475 36.9279C0.473475 42.2779 9.47729 39.7491 9.47729 44.0971C9.47729 45.6418 7.86033 46.5842 6.00489 46.5842C3.78883 46.5842 2.3231 45.1647 2.10789 43.4887C2.09044 43.3575 2.0032 43.2859 1.87524 43.2859H0.19429C0.0663284 43.2859 -0.0151025 43.3754 0.00234672 43.5066C0.252453 46.8228 2.87566 48.3735 5.66754 48.3735C9.32607 48.3735 11.5596 46.441 11.5596 43.5543C11.5596 37.918 2.62555 40.4111 2.62555 36.6774L2.61974 36.6715Z" fill="#353535"/>
<path d="M76.7533 36.8509C75.1596 36.8509 73.9439 37.489 73.2227 38.8847H73.182V32.8667C73.182 32.7355 73.0947 32.646 72.9668 32.646H71.5185C71.3905 32.646 71.3091 32.7355 71.3091 32.8667V47.8073C71.3091 47.9326 71.3905 48.0221 71.5185 48.0221H72.9668C73.0947 48.0221 73.182 47.9326 73.182 47.8073V41.7655C73.182 39.7197 74.479 38.7117 76.1193 38.7117C77.7595 38.7117 78.8006 39.7197 78.8006 41.7655V47.8073C78.8006 47.9326 78.8879 48.0221 79.01 48.0221H80.4583C80.5863 48.0221 80.6677 47.9326 80.6677 47.8073V41.1929C80.6677 38.1391 78.9868 36.8509 76.7533 36.8509Z" fill="#353535"/>
<path d="M33.7892 36.7317C31.4859 36.7317 29.741 37.6502 29.4851 39.9226C29.4618 40.0777 29.5723 40.1612 29.6944 40.1612H31.0846C31.2125 40.1612 31.2998 40.0956 31.3172 39.9405C31.4219 38.8967 32.4456 38.4196 33.7252 38.4196C35.3247 38.4196 36.1739 39.0936 36.1739 40.9902V41.4972H37.8374C37.9654 41.4972 38.0468 41.4077 38.0468 41.2765V40.5369C38.0468 37.2804 35.8773 36.7317 33.7892 36.7317Z" fill="#353535"/>
<path d="M21.1409 36.7316C19.5356 36.7316 18.3316 37.3698 17.6046 38.7714H17.5638V32.8667C17.5638 32.7355 17.4766 32.646 17.3545 32.646H15.9062C15.784 32.646 15.6968 32.7355 15.6968 32.8667V47.8073C15.6968 47.9326 15.784 48.0221 15.9062 48.0221H17.3545C17.4766 48.0221 17.5638 47.9326 17.5638 47.8073V41.6462C17.5638 39.6004 18.8609 38.5924 20.5011 38.5924C22.1414 38.5924 23.1767 39.6004 23.1767 41.6462V47.8073C23.1767 47.9326 23.2639 48.0221 23.3919 48.0221H24.8402C24.9681 48.0221 25.0554 47.9326 25.0554 47.8073V41.0796C25.0554 38.0258 23.3745 36.7316 21.1409 36.7316Z" fill="#353535"/>
<path d="M57.8838 45.0148C57.8838 47.1978 59.4774 48.3727 61.7168 48.3727C63.1418 48.3727 64.404 47.6749 65.0379 46.5894H65.0787V47.8121C65.0787 47.9433 65.1659 48.0268 65.2939 48.0268H66.7422C66.8759 48.0268 66.9516 47.9433 66.9516 47.8121V43.3985C66.9516 43.2673 66.8701 43.1838 66.7422 43.1838H65.0787V43.816C65.0787 45.6053 63.357 46.6789 62.0774 46.6789C60.9257 46.6789 59.9893 46.148 59.9893 45.0327C59.9893 43.7862 60.885 43.1778 62.7521 43.1778H65.0728V41.4958H62.1995C59.7566 41.4958 57.8779 42.6768 57.8779 45.0148H57.8838Z" fill="#353535"/>
<path d="M47.8929 36.8795C46.4213 36.3845 44.9963 37.2791 44.2925 38.633H44.2518V37.1658C44.2518 37.0405 44.1646 36.957 44.0366 36.957H42.5941C42.4661 36.957 42.3789 37.0405 42.3789 37.1658V47.8002C42.3789 47.9255 42.4661 48.0149 42.5941 48.0149H44.0366C44.1646 48.0149 44.2518 47.9255 44.2518 47.8002V41.5078C44.2518 39.6112 45.4674 38.4958 47.0786 38.4958C47.317 38.4958 47.5672 38.5197 47.8289 38.5853C47.9801 38.6092 48.0615 38.5376 48.0615 38.3885V37.1479C48.0615 37.0405 48.015 36.9332 47.8929 36.8795Z" fill="#353535"/>
<path d="M53.7818 36.964H52.3335C52.2055 36.964 52.1241 37.0475 52.1241 37.1787L52.1357 48.8688C52.1357 50.4195 51.24 50.4195 50.385 50.4195C50.1756 50.4195 49.9662 50.4016 49.7219 50.3778C49.5765 50.3778 49.4893 50.4672 49.4893 50.5925V51.7496C49.4893 51.8808 49.5532 51.9643 49.6812 51.9881C50.0884 52.0538 50.4722 52.0776 50.8328 52.0776C52.665 52.0776 54.0028 51.2247 54.0028 48.8628L53.9912 37.1727C53.9912 37.0415 53.9039 36.958 53.7818 36.958V36.964Z" fill="#353535"/>
<path d="M53.081 32.646C52.3947 32.646 51.8887 33.1947 51.8887 33.8925C51.8887 34.5904 52.3947 35.1093 53.081 35.1093C53.7674 35.1093 54.2734 34.5605 54.2734 33.8925C54.2734 33.2245 53.7557 32.646 53.081 32.646Z" fill="#353535"/>
<path d="M62.6847 36.7317C60.3814 36.7317 58.6365 37.6502 58.3806 39.9226C58.3573 40.0777 58.4678 40.1612 58.5899 40.1612H59.9743C60.0964 40.1612 60.1836 40.0956 60.2069 39.9405C60.3116 38.8967 61.3353 38.4196 62.6207 38.4196C64.2144 38.4196 65.0636 39.0936 65.0636 40.9902V41.4972H66.7271C66.8609 41.4972 66.9365 41.4077 66.9365 41.2765V40.5369C66.9365 37.2804 64.767 36.7317 62.6789 36.7317H62.6847Z" fill="#353535"/>
<path d="M73.4965 24.2238H75.3693V19.5359C75.3693 16.1064 73.5372 14.7644 71.3967 14.7644H70.373C68.2326 14.7644 66.4062 16.1064 66.4062 19.5359V24.206H68.2733V19.4643C68.2733 17.6034 68.855 16.6312 70.6173 16.6312H71.1583C72.909 16.6312 73.4965 17.6094 73.4965 19.4643V24.2238H71.8911C70.85 24.2119 69.6925 24.2119 69.0294 24.2119H68.2733V25.8461H68.5699C69.5646 25.87 71.3967 25.8819 73.4965 25.8879V24.2298V24.2238Z" fill="#353535"/>
<path d="M101.991 25.9177C103.754 25.9177 105.051 25.0887 105.051 22.8222V19.7446C105.051 19.5955 104.946 19.4882 104.801 19.4882H103.428C103.271 19.4882 103.172 19.5955 103.172 19.7446V22.9534C103.12 24.2417 102.346 24.2417 101.567 24.2417H98.4084V21.4206V18.85C98.4084 17.0786 99.4438 16.4642 100.927 16.4642C102.137 16.4642 103.062 16.9235 103.16 17.8659C103.19 18.0388 103.288 18.1164 103.428 18.1164H104.737C104.882 18.1164 105.01 18.009 104.987 17.8301C104.743 15.6412 103.056 14.7644 100.863 14.7644C98.4782 14.7644 96.5297 16.0169 96.5297 19.7506V24.2358L75.3638 24.2238V25.8879L101.98 25.9177H101.991Z" fill="#353535"/>
<path d="M117.791 10.7975C117.791 10.6543 117.692 10.541 117.541 10.541H116.169C116.017 10.541 115.918 10.6484 115.918 10.7975V24.1994H117.791V10.7975Z" fill="#353535"/>
<path d="M138.482 25.8348C138.866 25.8885 149.254 25.9183 149.592 25.9183C151.342 25.9183 152.651 25.0893 152.651 22.8228V10.8107C152.651 10.6616 152.54 10.5542 152.395 10.5542H151.028C150.883 10.5542 150.778 10.6616 150.778 10.8107V22.8228C150.778 24.2483 149.975 24.2483 149.167 24.2483C149.103 24.2483 146.404 24.2483 145.439 24.2483H144.45V16.0175C144.45 15.8625 144.351 15.7551 144.2 15.7551H142.827C142.676 15.7551 142.571 15.8625 142.571 16.0175V24.2304H141.489L138.25 24.2125V25.5605C138.25 25.7036 138.325 25.811 138.476 25.8408L138.482 25.8348Z" fill="#353535"/>
<path d="M118.016 25.9001H136.163C136.309 25.8762 136.384 25.7748 136.384 25.6257V24.2062L134.325 24.2181V24.2062H131.644V16.6852C131.644 16.5301 131.545 16.4287 131.394 16.4287H130.021C129.876 16.4287 129.771 16.5361 129.771 16.6852V24.2062L117.789 24.1943V25.6675C117.789 25.7987 117.882 25.9001 118.01 25.9001H118.016Z" fill="#353535"/>
<path d="M138.258 16.3507C138.258 16.1956 138.153 16.0942 138.002 16.0942H136.635C136.484 16.0942 136.385 16.2016 136.385 16.3507V24.2117H138.258V16.3507Z" fill="#353535"/>
<path d="M111.469 24.8686V15.0632C111.469 14.938 111.382 14.8545 111.266 14.8545H109.899C109.777 14.8545 109.695 14.944 109.695 15.0632V25.1788C109.742 27.32 108.741 27.7971 107.153 27.7494C106.95 27.7494 106.752 27.7315 106.56 27.7017V29.3598C106.932 29.4612 107.334 29.5089 107.764 29.5089C110.306 29.4791 111.475 27.7733 111.475 24.8746L111.469 24.8686Z" fill="#353535"/>
<path d="M73.9005 12.4266C74.3425 11.9136 74.2902 11.1263 73.7841 10.673C73.2839 10.2198 72.5161 10.2734 72.0741 10.7923C71.632 11.3053 71.6844 12.0926 72.1904 12.5458C72.6906 12.9991 73.4642 12.9455 73.9005 12.4266Z" fill="#353535"/>
<path d="M70.1598 12.4266C70.6019 11.9136 70.5495 11.1263 70.0493 10.673C69.5433 10.2198 68.7755 10.2734 68.3393 10.7923C67.8973 11.3053 67.9496 12.0926 68.4498 12.5458C68.9558 12.9991 69.7236 12.9455 70.1598 12.4266Z" fill="#353535"/>
<path d="M103.83 12.4266C104.272 11.9136 104.219 11.1263 103.713 10.673C103.207 10.2198 102.445 10.2734 102.003 10.7923C101.561 11.3053 101.614 12.0926 102.12 12.5458C102.62 12.9991 103.388 12.9455 103.83 12.4266Z" fill="#353535"/>
<path d="M100.1 12.4266C100.542 11.9136 100.49 11.1263 99.9896 10.673C99.4836 10.2198 98.7159 10.2734 98.2738 10.7923C97.8318 11.3053 97.8841 12.0926 98.3901 12.5458C98.8962 12.9991 99.6581 12.9455 100.1 12.4266Z" fill="#353535"/>
<path d="M138.271 13.7863C138.777 14.2396 139.545 14.1859 139.981 13.667C140.423 13.1541 140.371 12.3668 139.865 11.9135C139.364 11.4602 138.597 11.5139 138.155 12.0328C137.713 12.5457 137.765 13.339 138.271 13.7863Z" fill="#353535"/>
<path d="M136.24 13.6729C136.682 13.16 136.63 12.3727 136.123 11.9194C135.617 11.4661 134.856 11.5198 134.413 12.0387C133.971 12.5516 134.024 13.3449 134.53 13.7922C135.03 14.2455 135.804 14.1918 136.24 13.6729Z" fill="#353535"/>
<path d="M138.041 10.7623C138.483 10.2493 138.431 9.46203 137.931 9.00874C137.43 8.55545 136.657 8.60912 136.221 9.12802C135.779 9.64095 135.831 10.4342 136.331 10.8815C136.837 11.3348 137.605 11.2811 138.041 10.7623Z" fill="#353535"/>
<path d="M113.747 50.645C113.102 50.645 112.613 51.1639 112.613 51.826C112.613 52.488 113.096 52.9771 113.747 52.9771C114.399 52.9771 114.876 52.4641 114.876 51.826C114.876 51.1878 114.387 50.645 113.747 50.645Z" fill="#353535"/>
<path d="M95.6328 48.8379L110.593 48.7902C110.744 48.7902 110.854 48.659 110.854 48.5099V47.144L95.6328 47.1798V48.8379Z" fill="#353535"/>
<path d="M91.6608 37.4882H90.6371C88.4908 37.4882 86.6703 38.8302 86.6703 42.2538V46.9715C86.6587 47.1207 86.7226 47.1803 86.8273 47.1863H88.5374L88.5432 42.1822C88.5432 40.3213 89.1248 39.3432 90.8872 39.3432H91.4223C93.1847 39.3432 93.7663 40.3213 93.7663 42.1822V47.1743H95.6392V42.2418C95.6392 38.8183 93.8129 37.4763 91.6666 37.4763L91.6608 37.4882Z" fill="#353535"/>
<path d="M109.989 50.645C109.343 50.645 108.854 51.1639 108.854 51.826C108.854 52.488 109.343 52.9771 109.989 52.9771C110.634 52.9771 111.117 52.4641 111.117 51.826C111.117 51.1878 110.634 50.645 109.989 50.645Z" fill="#353535"/>
<path d="M88.5395 48.6469C88.5511 48.7781 88.6268 48.8437 88.7373 48.8497L93.7627 48.8378V47.1797H88.5337L88.5395 48.641V48.6469Z" fill="#353535"/>
<path d="M140.707 51.0091C140.504 51.0091 140.3 50.9912 140.108 50.9613V52.6194C140.481 52.7208 140.882 52.7685 141.307 52.7685C143.645 52.7447 144.814 51.3132 144.994 48.844H143.243C143.156 50.6452 142.185 51.0508 140.702 51.0091H140.707Z" fill="#353535"/>
<path d="M152.447 33.4851H151.075C150.929 33.4851 150.83 33.5925 150.83 33.7416V45.7657C150.83 47.1852 150.033 47.1852 149.225 47.1852C149.114 47.1852 146.049 47.1852 145.118 47.1733H145.02V38.012C145.02 37.8868 144.944 37.8033 144.822 37.8033H143.449C143.327 37.8033 143.246 37.8928 143.246 38.012V47.1852H145.037V48.8314L145.206 48.8373C146.247 48.8552 149.452 48.8612 149.649 48.8612C151.406 48.8612 152.709 48.0381 152.709 45.7657V33.7416C152.709 33.5925 152.604 33.4851 152.459 33.4851H152.447Z" fill="#353535"/>
<path d="M157.585 33.48H156.212C156.067 33.48 155.968 33.5814 155.968 33.7305V48.5877C155.968 48.7427 156.067 48.8501 156.212 48.8501H157.585C157.73 48.8501 157.835 48.7427 157.835 48.5877V33.7305C157.835 33.5814 157.73 33.48 157.585 33.48Z" fill="#353535"/>
<path d="M112.47 37.7981H111.103C110.952 37.7981 110.853 37.9055 110.853 38.0605V47.1502H112.738L112.726 38.0605C112.726 37.9055 112.627 37.7981 112.47 37.7981Z" fill="#353535"/>
<path d="M138.822 42.4324H137.449C137.298 42.4324 137.193 42.5397 137.193 42.6888V45.8917C137.147 47.18 136.373 47.18 135.594 47.18C135.419 47.18 134.07 47.18 132.43 47.168V44.3529V41.7882C132.43 40.0168 133.471 39.3965 134.948 39.3965C136.158 39.3965 137.083 39.8558 137.182 40.7981C137.211 40.9711 137.31 41.0486 137.449 41.0486H138.758C138.903 41.0486 139.031 40.9413 139.008 40.7683C138.764 38.5794 137.071 37.7026 134.884 37.7026C132.5 37.7026 130.551 38.9551 130.551 42.6888V47.1621C129.021 47.1561 127.521 47.1502 126.648 47.1442H126.311V43.2793C126.311 39.8498 124.484 38.5078 122.344 38.5078H121.861C119.715 38.5078 117.889 39.8438 117.889 43.2793V47.1382H112.729V48.4802C112.729 48.6174 112.799 48.7486 112.951 48.7486L119.762 48.7665V50.3769H124.444V48.7665L136.018 48.85C137.769 48.844 139.055 48.015 139.055 45.7545V42.6769C139.055 42.5218 138.956 42.4204 138.805 42.4204L138.822 42.4324ZM124.455 48.7367H119.773V43.2256C119.773 41.3588 120.355 40.3806 122.117 40.3806C123.88 40.3806 124.455 41.3588 124.455 43.2256V48.7367Z" fill="#353535"/>
<path d="M135.775 33.5996C135.327 34.1125 135.385 34.8998 135.892 35.3531C136.398 35.8064 137.16 35.7527 137.602 35.2398C138.044 34.7209 137.991 33.9396 137.485 33.4863C136.979 33.033 136.217 33.0867 135.775 33.6056V33.5996Z" fill="#353535"/>
<path d="M132.037 33.5996C131.595 34.1125 131.648 34.8998 132.154 35.3531C132.654 35.8064 133.422 35.7527 133.864 35.2398C134.306 34.7209 134.254 33.9396 133.748 33.4863C133.241 33.033 132.48 33.0867 132.037 33.6056V33.5996Z" fill="#353535"/>
<path d="M88.8744 33.5996C88.4323 34.1125 88.4847 34.8998 88.9907 35.3531C89.4967 35.8064 90.2645 35.7527 90.7007 35.2398C91.1428 34.7209 91.0904 33.9396 90.5902 33.4863C90.0842 33.033 89.3164 33.0867 88.8744 33.6056V33.5996Z" fill="#353535"/>
<path d="M92.6097 33.5996C92.1677 34.1125 92.22 34.8998 92.7261 35.3531C93.2321 35.8064 93.994 35.7527 94.4361 35.2398C94.8781 34.7209 94.8258 33.9396 94.3256 33.4863C93.8196 33.033 93.0518 33.0867 92.6156 33.6056L92.6097 33.5996Z" fill="#353535"/>
</g>
<defs>
<clipPath id="clip0_60_4831">
<rect width="232" height="61" fill="white"/>
</clipPath>
</defs>
</svg>
