<svg width="24" height="24" viewBox="0 0 24 24" fill="none" xmlns="http://www.w3.org/2000/svg">
<path d="M4 19.0801V17.0801H6V10.0801C6 8.69674 6.41667 7.46741 7.25 6.39208C8.08333 5.31741 9.16667 4.61341 10.5 4.28008V3.58008C10.5 3.16341 10.646 2.80941 10.938 2.51808C11.2293 2.22608 11.5833 2.08008 12 2.08008C12.4167 2.08008 12.7707 2.22608 13.062 2.51808C13.354 2.80941 13.5 3.16341 13.5 3.58008V4.28008C14.8333 4.61341 15.9167 5.31741 16.75 6.39208C17.5833 7.46741 18 8.69674 18 10.0801V17.0801H20V19.0801H4ZM12 22.0801C11.45 22.0801 10.9793 21.8844 10.588 21.4931C10.196 21.1011 10 20.6301 10 20.0801H14C14 20.6301 13.8043 21.1011 13.413 21.4931C13.021 21.8844 12.55 22.0801 12 22.0801ZM8 17.0801H16V10.0801C16 8.98008 15.6083 8.03841 14.825 7.25508C14.0417 6.47175 13.1 6.08008 12 6.08008C10.9 6.08008 9.95833 6.47175 9.175 7.25508C8.39167 8.03841 8 8.98008 8 10.0801V17.0801Z" fill="#2C332F"/>
</svg>
