<svg width="23" height="23" viewBox="0 0 23 23" fill="none" xmlns="http://www.w3.org/2000/svg">
<path d="M22.5 11.6443C22.5 13.6443 22 15.6443 21 17.2693C20 19.0193 18.625 20.3943 16.875 21.3943C15.25 22.3943 13.25 22.8943 11.25 22.8943C8.125 22.8943 5.375 21.6443 3.25 19.6443C1.125 17.6443 0 14.7693 0 11.6443C0 5.39429 5 0.394287 11.25 0.394287H11.875C12.125 0.394287 12.375 0.394287 12.625 0.519287H12.875C13.25 0.519287 13.625 0.644287 14 0.769287C14.125 0.769287 14.375 0.894287 14.5 0.894287C14.875 1.01929 15.25 1.14429 15.5 1.26929C15.875 1.39429 16.25 1.51929 16.5 1.64429C16.875 1.76929 17.125 2.01929 17.5 2.26929C17.75 2.39429 18 2.64429 18.375 2.89429C18.375 2.89429 18.5 2.89429 18.5 3.01929C18.75 3.26929 19 3.39429 19.25 3.64429V3.76929C20.375 4.76929 21.125 6.14429 21.75 7.51929C22.25 8.76929 22.5 10.1443 22.5 11.6443Z" fill="#886CFF"/>
<path d="M11.25 2.89429C11.9404 2.89429 12.5 2.33464 12.5 1.64429C12.5 0.953931 11.9404 0.394287 11.25 0.394287C10.5596 0.394287 10 0.953931 10 1.64429C10 2.33464 10.5596 2.89429 11.25 2.89429Z" fill="black"/>
<path d="M21.625 7.39428C21.5 7.51928 21.25 7.64428 21.125 7.64428L15.875 8.64428C15.75 8.64428 15.75 8.64428 15.625 8.64428C15.25 8.64428 14.875 8.51928 14.625 8.14428C14.5 8.01928 14.375 7.76928 14.375 7.64428C14.25 7.01928 14.75 6.26928 15.375 6.14428L16.875 5.89428L17.625 5.76928C17.5 5.64428 17.5 5.51928 17.375 5.51928C15.875 3.89428 13.625 2.89428 11.25 2.89428C6.375 2.89428 2.5 6.76928 2.5 11.6443C2.5 14.0193 3.5 16.2693 5 17.8943C6.625 19.5193 8.75 20.3943 11.25 20.3943C11.875 20.3943 12.5 21.0193 12.5 21.6443C12.5 22.2693 11.875 22.8943 11.25 22.8943C8.125 22.8943 5.375 21.6443 3.25 19.6443C1.125 17.6443 0 14.7693 0 11.6443C0 5.39428 5 0.394283 11.25 0.394283H11.875C12.125 0.394283 12.375 0.394282 12.625 0.519282H12.875C13.25 0.519282 13.625 0.644283 14 0.769283C14.125 0.769283 14.375 0.894283 14.5 0.894283C14.875 1.01928 15.25 1.14428 15.5 1.26928C15.875 1.39428 16.25 1.51928 16.5 1.64428C16.875 1.76928 17.125 2.01928 17.5 2.26928C17.75 2.39428 18 2.64428 18.375 2.89428C18.375 2.89428 18.5 2.89428 18.5 3.01928C18.75 3.26928 19 3.39428 19.25 3.64428L18.75 1.51928C18.625 0.894283 19.125 0.144283 19.75 0.0192827C20.375 -0.105717 21.125 0.394283 21.25 1.01928V1.64428L22.125 6.26928C22.25 6.76928 22 7.14428 21.625 7.39428Z" fill="#584AE5"/>
<path d="M21.25 12.8943C21.9404 12.8943 22.5 12.3346 22.5 11.6443C22.5 10.9539 21.9404 10.3943 21.25 10.3943C20.5596 10.3943 20 10.9539 20 11.6443C20 12.3346 20.5596 12.8943 21.25 12.8943Z" fill="#584AE5"/>
<path d="M21.0001 17.2694C20.6251 17.8944 19.8751 18.1444 19.2501 17.7694C18.6251 17.3944 18.5001 16.6444 18.7501 16.0194C19.1251 15.3944 19.8751 15.2694 20.5001 15.5194C21.1251 15.8944 21.3751 16.6444 21.0001 17.2694Z" fill="#584AE5"/>
<path d="M16.8749 21.3942C16.2499 21.7692 15.4999 21.5192 15.1249 21.0192C14.7499 20.3942 14.9999 19.6442 15.6249 19.2692C16.2499 18.8942 16.9999 19.1442 17.3749 19.7692C17.6249 20.2692 17.4999 21.0192 16.8749 21.3942Z" fill="#584AE5"/>
<path d="M13.75 15.3943C13.375 15.3943 13.125 15.2693 12.875 15.0193L10.375 12.5193C10.125 12.2693 10 12.0193 10 11.6443V7.89429C10 7.14429 10.5 6.64429 11.25 6.64429C12 6.64429 12.5 7.14429 12.5 7.89429V11.1443L14.625 13.2693C15.125 13.7693 15.125 14.5193 14.625 15.0193C14.375 15.2693 14.125 15.3943 13.75 15.3943Z" fill="white"/>
<path opacity="0.1" d="M22.5 11.6443C22.5 13.6443 22 15.6443 21 17.2693C20 19.0193 18.625 20.3943 16.875 21.3943C15.25 22.3943 13.25 22.8943 11.25 22.8943C8.125 22.8943 5.375 21.6443 3.25 19.6443L5 17.8943L10.25 12.6443L12.5 10.3943L14.75 8.14429L17 5.89429L17.375 5.51929L19.125 3.76929L21.25 1.64429L22.125 6.26929C22.25 6.76929 22 7.14429 21.625 7.51929C22.25 8.76929 22.5 10.1443 22.5 11.6443Z" fill="black"/>
</svg>
