<svg width="30" height="30" viewBox="0 0 30 30" fill="none" xmlns="http://www.w3.org/2000/svg">
<g clip-path="url(#clip0_182_602)">
<path d="M28.2422 12.3633H25.6055C25.1201 12.3633 24.7266 11.9112 24.7266 11.4258V8.78906H5.27344V11.4258C5.27344 11.9112 4.87992 12.3633 4.39453 12.3633H1.75781C0.786973 12.3633 0 11.5177 0 10.5469V2.63672C0 1.18049 1.18049 0 2.63672 0H7.96875C10.0905 0 11.8672 1.51236 12.2757 3.51562H27.3633C28.8195 3.51562 30 4.69611 30 6.15234V10.5469C30 11.5177 29.213 12.3633 28.2422 12.3633Z" fill="#FFBB33"/>
<path d="M25.6055 12.3633H28.2422C29.213 12.3633 30 11.5176 30 10.5469V6.15234C30 4.69611 28.8195 3.51562 27.3633 3.51562H15V8.78906H24.7266V11.4258C24.7266 11.9112 25.1201 12.3633 25.6055 12.3633Z" fill="#FF9933"/>
<path d="M25.6055 12.3633H4.39453C3.90873 12.3633 3.51562 11.9116 3.51562 11.4258V7.91016C3.51562 7.42436 3.90873 7.03125 4.39453 7.03125H25.6055C26.0913 7.03125 26.4844 7.42436 26.4844 7.91016V11.4258C26.4844 11.9116 26.0913 12.3633 25.6055 12.3633Z" fill="#FFF5F5"/>
<path d="M27.3633 30H2.63672C1.18049 30 0 28.8195 0 27.3633V10.5469H15.2344L30 27.3633C30 28.8195 28.8195 30 27.3633 30Z" fill="#FFE666"/>
<path d="M15 12.3633H25.6055C26.0913 12.3633 26.4844 11.9116 26.4844 11.4258V7.91016C26.4844 7.42436 26.0913 7.03125 25.6055 7.03125H15V12.3633Z" fill="#EFE2DD"/>
<path d="M30 10.5469H15V30H27.3633C28.8195 30 30 28.8195 30 27.3633V10.5469Z" fill="#FFBB33"/>
<path d="M11.4226 20.005C11.2424 19.5544 11.4604 19.0428 11.9119 18.8626L17.4359 16.6533C17.8839 16.4705 18.3972 16.6919 18.5774 17.1434C18.7577 17.594 18.5396 18.1055 18.0882 18.2858L12.5641 20.4951C12.1206 20.6739 11.6044 20.4605 11.4226 20.005Z" fill="#404F6E"/>
<path d="M17.4359 24.0106L11.9119 21.8013C11.4604 21.6211 11.2424 21.1095 11.4226 20.6589C11.6028 20.2074 12.1161 19.9868 12.5641 20.1688L18.0882 22.3781C18.5396 22.5583 18.7577 23.0699 18.5774 23.5205C18.3958 23.9757 17.8798 24.1895 17.4359 24.0106Z" fill="#404F6E"/>
<path d="M10.6055 22.9688C9.15152 22.9688 7.96875 21.786 7.96875 20.332C7.96875 18.8781 9.15152 17.6953 10.6055 17.6953C12.0594 17.6953 13.2422 18.8781 13.2422 20.332C13.2422 21.786 12.0594 22.9688 10.6055 22.9688Z" fill="#404F6E"/>
<path d="M15 19.5209L18.0882 18.2858C18.5396 18.1055 18.7577 17.594 18.5774 17.1434C18.3972 16.6919 17.8839 16.4705 17.4359 16.6533L15 17.6275V19.5209Z" fill="#0F2552"/>
<path d="M15 23.0365L17.4359 24.0106C17.8797 24.1896 18.3957 23.9757 18.5774 23.5206C18.7576 23.07 18.5396 22.5584 18.0881 22.3782L15 21.1431V23.0365Z" fill="#0F2552"/>
<path d="M19.3945 19.4531C17.9406 19.4531 16.7578 18.2704 16.7578 16.8164C16.7578 15.3625 17.9406 14.1797 19.3945 14.1797C20.8485 14.1797 22.0312 15.3625 22.0312 16.8164C22.0312 18.2704 20.8485 19.4531 19.3945 19.4531Z" fill="#0F2552"/>
<path d="M19.3945 26.4844C17.9406 26.4844 16.7578 25.3016 16.7578 23.8477C16.7578 22.3937 17.9406 21.2109 19.3945 21.2109C20.8485 21.2109 22.0312 22.3937 22.0312 23.8477C22.0312 25.3016 20.8485 26.4844 19.3945 26.4844Z" fill="#0F2552"/>
</g>
<defs>
<clipPath id="clip0_182_602">
<rect width="30" height="30" fill="white"/>
</clipPath>
</defs>
</svg>
