<svg width="24" height="24" viewBox="0 0 24 24" fill="none" xmlns="http://www.w3.org/2000/svg">
<path d="M14.7692 12.8837H8.30765C7.92919 12.8837 7.61535 12.5674 7.61535 12.186C7.61535 11.8047 7.92919 11.4884 8.30765 11.4884H14.7692C15.1477 11.4884 15.4615 11.8047 15.4615 12.186C15.4615 12.5674 15.1477 12.8837 14.7692 12.8837Z" fill="#111827"/>
<path d="M12.3507 16.6047H8.30765C7.92919 16.6047 7.61535 16.2884 7.61535 15.907C7.61535 15.5256 7.92919 15.2093 8.30765 15.2093H12.3507C12.7292 15.2093 13.043 15.5256 13.043 15.907C13.043 16.2884 12.7292 16.6047 12.3507 16.6047Z" fill="#111827"/>
<path d="M13.8461 7.11628H10.1538C9.26765 7.11628 7.61535 7.11628 7.61535 4.55814C7.61535 2 9.26765 2 10.1538 2H13.8461C14.7323 2 16.3846 2 16.3846 4.55814C16.3846 5.45116 16.3846 7.11628 13.8461 7.11628ZM10.1538 3.39535C9.23996 3.39535 8.99996 3.39535 8.99996 4.55814C8.99996 5.72093 9.23996 5.72093 10.1538 5.72093H13.8461C15 5.72093 15 5.47907 15 4.55814C15 3.39535 14.76 3.39535 13.8461 3.39535H10.1538Z" fill="#111827"/>
<path d="M14.7692 22H9.23077C4.04308 22 3 19.6 3 15.7209V10.1395C3 5.89766 4.52308 4.08371 8.27077 3.88836C8.64 3.86976 8.98154 4.15813 9 4.54882C9.01846 4.93952 8.72308 5.2558 8.34462 5.27441C5.72308 5.42324 4.38462 6.21394 4.38462 10.1395V15.7209C4.38462 19.1628 5.05846 20.6046 9.23077 20.6046H14.7692C18.9415 20.6046 19.6154 19.1628 19.6154 15.7209V10.1395C19.6154 6.21394 18.2769 5.42324 15.6554 5.27441C15.2769 5.2558 14.9815 4.92092 15 4.53952C15.0185 4.15813 15.3508 3.86045 15.7292 3.87906C19.4769 4.08371 21 5.89766 21 10.1302V15.7116C21 19.6 19.9569 22 14.7692 22Z" fill="#111827"/>
</svg>
