<svg width="30" height="30" viewBox="0 0 30 30" fill="none" xmlns="http://www.w3.org/2000/svg">
<path d="M25.3275 7.50464H22.7184V22.5228H7.28201V7.50464H4.67292C3.66837 7.50464 2.85474 8.31827 2.85474 9.32282V24.341H27.1456V9.32282C27.1456 8.32282 26.332 7.50464 25.3275 7.50464Z" fill="#0E4B5C"/>
<path d="M29.091 24.3455V26.0591L27.7274 27.45H2.27282L0.90918 26.0591V24.3455H29.091Z" fill="#658C99"/>
<path d="M7.28076 9.32593V22.5259H4.67167V9.32593H7.28076Z" fill="#1C8FC7"/>
<path d="M25.3262 9.32593V22.5259H22.7171V9.32593H25.3262Z" fill="#1C8FC7"/>
<path d="M22.7183 22.5273H7.2819V2.55007H22.7183V22.5273Z" fill="#E1D9E1"/>
<path opacity="0.08" d="M23.626 22.5291H22.7169V7.51087H23.626V22.5291Z" fill="black"/>
<path opacity="0.08" d="M7.2832 22.5291H6.37411V7.51087H7.2832V22.5291Z" fill="black"/>
<path d="M16.5729 26.2365H13.4229C13.2366 26.2365 13.082 26.082 13.082 25.8956C13.082 25.7092 13.2366 25.5547 13.4229 25.5547H16.5729C16.7593 25.5547 16.9138 25.7092 16.9138 25.8956C16.9138 26.082 16.7638 26.2365 16.5729 26.2365Z" fill="#F6F0F5"/>
<path d="M11.0637 14.5C12.1482 14.5 13.0274 13.6209 13.0274 12.5364C13.0274 11.4519 12.1482 10.5728 11.0637 10.5728C9.97925 10.5728 9.1001 11.4519 9.1001 12.5364C9.1001 13.6209 9.97925 14.5 11.0637 14.5Z" fill="#1C8FC7"/>
<path d="M11.0637 8.29544C12.1482 8.29544 13.0274 7.41629 13.0274 6.3318C13.0274 5.24731 12.1482 4.36816 11.0637 4.36816C9.97925 4.36816 9.1001 5.24731 9.1001 6.3318C9.1001 7.41629 9.97925 8.29544 11.0637 8.29544Z" fill="#FF7146"/>
<path d="M11.0637 20.7093C12.1482 20.7093 13.0274 19.8301 13.0274 18.7456C13.0274 17.6611 12.1482 16.782 11.0637 16.782C9.97925 16.782 9.1001 17.6611 9.1001 18.7456C9.1001 19.8301 9.97925 20.7093 11.0637 20.7093Z" fill="#FFC040"/>
<path d="M20.9002 6.03631H14.6866C14.5002 6.03631 14.3457 5.88176 14.3457 5.6954C14.3457 5.50904 14.5002 5.35449 14.6866 5.35449H20.9002C21.0866 5.35449 21.2412 5.50904 21.2412 5.6954C21.2412 5.88176 21.0866 6.03631 20.9002 6.03631Z" fill="#C3B8C3"/>
<path d="M19.5366 7.30462H14.6866C14.5002 7.30462 14.3457 7.15008 14.3457 6.96371C14.3457 6.77735 14.5002 6.6228 14.6866 6.6228H19.5366C19.723 6.6228 19.8775 6.77735 19.8775 6.96371C19.8775 7.15008 19.723 7.30462 19.5366 7.30462Z" fill="#C3B8C3"/>
<path d="M20.9002 12.2455H14.6866C14.5002 12.2455 14.3457 12.091 14.3457 11.9046C14.3457 11.7183 14.5002 11.5637 14.6866 11.5637H20.9002C21.0866 11.5637 21.2412 11.7183 21.2412 11.9046C21.2412 12.091 21.0866 12.2455 20.9002 12.2455Z" fill="#C3B8C3"/>
<path d="M19.5366 13.5136H14.6866C14.5002 13.5136 14.3457 13.3591 14.3457 13.1727C14.3457 12.9863 14.5002 12.8318 14.6866 12.8318H19.5366C19.723 12.8318 19.8775 12.9863 19.8775 13.1727C19.8775 13.3591 19.723 13.5136 19.5366 13.5136Z" fill="#C3B8C3"/>
<path d="M20.9002 18.4545H14.6866C14.5002 18.4545 14.3457 18.3 14.3457 18.1136C14.3457 17.9273 14.5002 17.7727 14.6866 17.7727H20.9002C21.0866 17.7727 21.2412 17.9273 21.2412 18.1136C21.2412 18.3 21.0866 18.4545 20.9002 18.4545Z" fill="#C3B8C3"/>
<path d="M19.5366 19.7228H14.6866C14.5002 19.7228 14.3457 19.5683 14.3457 19.3819C14.3457 19.1956 14.5002 19.041 14.6866 19.041H19.5366C19.723 19.041 19.8775 19.1956 19.8775 19.3819C19.8775 19.5683 19.723 19.7228 19.5366 19.7228Z" fill="#C3B8C3"/>
<path d="M10.6864 19.7C10.6 19.7 10.5136 19.6682 10.4455 19.6L9.97728 19.1319C9.84546 19 9.84546 18.7819 9.97728 18.65C10.1091 18.5182 10.3273 18.5182 10.4591 18.65L10.6864 18.8773L11.6727 17.8955C11.8046 17.7637 12.0227 17.7637 12.1546 17.8955C12.2864 18.0273 12.2864 18.2455 12.1546 18.3773L10.9273 19.6C10.8591 19.6682 10.7727 19.7 10.6864 19.7Z" fill="white"/>
<path d="M10.6864 7.28647C10.6 7.28647 10.5136 7.25465 10.4455 7.18647L9.97728 6.71828C9.84546 6.58647 9.84546 6.36828 9.97728 6.23647C10.1091 6.10465 10.3273 6.10465 10.4591 6.23647L10.6864 6.46374L11.6727 5.48192C11.8046 5.3501 12.0227 5.3501 12.1546 5.48192C12.2864 5.61374 12.2864 5.83192 12.1546 5.96374L10.9273 7.18647C10.8591 7.2501 10.7727 7.28647 10.6864 7.28647Z" fill="white"/>
<path d="M10.6864 13.491C10.6 13.491 10.5136 13.4591 10.4455 13.391L9.97728 12.9228C9.84546 12.791 9.84546 12.5728 9.97728 12.441C10.1091 12.3091 10.3273 12.3091 10.4591 12.441L10.6864 12.6682L11.6727 11.6819C11.8046 11.5501 12.0227 11.5501 12.1546 11.6819C12.2864 11.8137 12.2864 12.0319 12.1546 12.1637L10.9273 13.391C10.8591 13.4591 10.7727 13.491 10.6864 13.491Z" fill="white"/>
</svg>
