<svg width="30" height="30" viewBox="0 0 30 30" fill="none" xmlns="http://www.w3.org/2000/svg">
<path d="M19.3652 4.30705C16.1404 4.24256 12.8142 6.08925 11.9019 10.2561C8.18837 8.98859 4.83543 11.4885 5.18372 15.4801C3.24075 16.2655 1.875 18.1637 1.875 20.3947C1.875 23.3324 4.24001 25.6974 7.17773 25.6974H13.6194C13.6176 23.9121 13.6139 20.3298 13.6139 19.6513L12.1032 20.1987C11.0073 20.671 10.1979 19.291 11.1364 18.4317L13.9947 15.654C14.6476 15.0012 15.4273 15.0761 16.0053 15.654L18.8635 18.4317C19.8021 19.291 18.9926 20.671 17.8967 20.1987L16.3861 19.6513V25.6974H22.8223C25.76 25.6974 28.125 23.3324 28.125 20.3947C28.125 18.2325 26.8416 16.3841 24.9939 15.557C28.5741 8.57729 24.0784 4.40116 19.3652 4.30705Z" fill="#75B5FF"/>
<path d="M19.3653 4.3062C19.1856 4.30266 18.9885 4.30882 18.8086 4.3168C14.6899 10.808 21.0553 15.5558 24.9939 15.5558C28.5742 8.57608 24.0784 4.40031 19.3653 4.3062Z" fill="#488BFF"/>
</svg>
